<svg width="26" height="26" viewBox="0 0 26 26" fill="none" xmlns="http://www.w3.org/2000/svg">
<g id="mainIcon/Refresh">
<path id="Union" d="M13.0868 2.4375C7.89382 2.4375 3.62481 6.40576 3.20857 11.4653H2.16799C1.83879 11.4653 1.54212 11.6639 1.41673 11.9683C1.29135 12.2727 1.36203 12.6227 1.59573 12.8546L3.41553 14.6601C3.7323 14.9744 4.24327 14.9744 4.56005 14.6601L6.37985 12.8546C6.61354 12.6227 6.68423 12.2727 6.55885 11.9683C6.43346 11.6639 6.13679 11.4653 5.80758 11.4653H4.84034C5.25169 7.31431 8.78149 4.0625 13.0868 4.0625C16.0871 4.0625 18.7134 5.64249 20.1682 8.00886C20.4032 8.39113 20.9036 8.51051 21.2859 8.2755C21.6681 8.04049 21.7875 7.54009 21.5525 7.15782C19.8123 4.32713 16.6709 2.4375 13.0868 2.4375Z" fill="white"/>
<path id="Union_2" opacity="0.5" d="M22.5786 11.3391C22.2621 11.0263 21.7528 11.0263 21.4363 11.3391L19.6096 13.1447C19.3752 13.3763 19.304 13.7265 19.4292 14.0313C19.5544 14.3361 19.8512 14.5351 20.1807 14.5351H21.1548C20.7418 18.6837 17.1996 21.9378 12.8737 21.9378C9.85935 21.9378 7.22209 20.3565 5.76186 17.9903C5.5262 17.6084 5.02559 17.4899 4.64372 17.7256C4.26186 17.9612 4.14333 18.4618 4.37899 18.8437C6.12599 21.6746 9.27847 23.5628 12.8737 23.5628C18.0823 23.5628 22.3688 19.597 22.7866 14.5351H23.8342C24.1637 14.5351 24.4606 14.3361 24.5858 14.0313C24.711 13.7265 24.6397 13.3763 24.4054 13.1447L22.5786 11.3391Z" fill="white"/>
</g>
</svg>
